<svg fill="none" height="30" viewBox="0 0 30 30" width="30" xmlns="http://www.w3.org/2000/svg"><path clip-rule="evenodd" d="m12.2337 8.89992c0-.69836-.5662-1.2645-1.2645-1.2645-.6984 0-1.26452.56614-1.26452 1.2645h-1.71745c0-1.64688 1.33506-2.98195 2.98197-2.98195 1.6469 0 2.9819 1.33507 2.9819 2.98195z" fill="#fff" fill-rule="evenodd" stroke="#fff" stroke-width=".25"/><path clip-rule="evenodd" d="m20.7455 8.89992c-.0103-.7014-.5819-1.26457-1.2834-1.2645-.6984 0-1.2645.56614-1.2645 1.2645h-1.7174c0-1.64688 1.335-2.98195 2.9819-2.98195s2.9819 1.33507 2.9819 2.98195z" fill="#fff" fill-rule="evenodd" stroke="#fff" stroke-width=".25"/><path d="m5.15625 15.6278c3.43491-.887 16.53285-.4341 19.04295 0-.0189 11.1163-19.04295 9.7763-19.04295 0z" fill="#111118"/><path clip-rule="evenodd" d="m9.40268 21.5935c3.19772 1.8337 7.07332 2.0506 10.45572.5851-1.2726-1.4942-3.51-1.6877-5.0203-.4341-.5226-1.0001-1.5454-1.6391-2.6734-1.6705-1.128-.0313-2.18465.55-2.76202 1.5195z" fill="#fff" fill-rule="evenodd"/><path clip-rule="evenodd" d="m7.98723 16.0889c4.85037-.35 9.71967-.35 14.57007 0 0 1.8873-.8116 1.6797-7.3039 1.6797-6.49237 0-7.26617.2076-7.26617-1.6797z" fill="#fff" fill-rule="evenodd"/><path d="m15 30c8.2843 0 15-6.7157 15-15 0-8.28427-6.7157-15-15-15-8.28427 0-15 6.71573-15 15 0 8.2843 6.71573 15 15 15z" fill="#2727e6"/><path clip-rule="evenodd" d="m12.2722 9c0-.70259-.5696-1.27215-1.2722-1.27215s-1.27215.56956-1.27215 1.27215h-1.72785c0-1.65685 1.34315-3 3-3 1.6569 0 3 1.34315 3 3z" fill="#fff" fill-rule="evenodd"/><path clip-rule="evenodd" d="m20.2911 9c-.0103-.70565-.5854-1.27223-1.2911-1.27215-.7026 0-1.2722.56956-1.2722 1.27215h-1.7278c0-1.65685 1.3431-3 3-3s3 1.34315 3 3z" fill="#fff" fill-rule="evenodd"/><path d="m6 14.4878c3.24678-.8497 15.6274-.4158 18 0-.0178 10.6478-18 9.3642-18 0z" fill="#000"/><g clip-rule="evenodd" fill="#fff" fill-rule="evenodd"><path d="m10 19.9911c3.0584 1.1951 6.7651 1.3364 10 .3813-1.2172-.9738-3.3571-1.0999-4.8014-.2829-.4999-.6518-1.4781-1.0683-2.5569-1.0887-1.0789-.0204-2.0895.3584-2.6417.9903z"/><path d="m9 15.2694c4.6606-.3592 9.3394-.3592 14 0 0 1.9367-.7798 1.7237-7.0181 1.7237-6.23838 0-6.9819.213-6.9819-1.7237z"/></g></svg>